{"glyphs":{":":{"x_min":0,"x_max":271,"ha":271,"o":"m 46 66 q 46 99 66 122 q 87 144 117 144 q 146 144 168 121 q 189 99 189 66 q 189 33 168 9 q 146 -14 117 -14 q 87 -14 67 9 q 46 32 46 66 z m 46 412 q 46 445 67 468 q 87 491 117 491 q 146 491 168 468 q 189 445 189 412 q 189 379 168 356 q 147 333 117 333 q 87 333 66 356 q 46 378 46 412 z"},"$":{"x_min":0,"x_max":542,"ha":542,"o":"m 292 30 l 292 -65 l 252 -65 l 252 27 q 201 28 159 43 q 118 57 84 85 l 119 242 l 134 240 q 148 153 177 107 q 206 61 247 61 q 283 61 307 89 q 331 118 331 161 q 331 201 314 222 q 297 243 237 265 q 141 301 116 333 q 91 365 91 423 q 91 498 136 545 q 181 592 262 602 l 262 694 l 301 694 l 301 602 q 333 600 365 587 q 396 575 425 554 l 397 431 l 382 430 q 372 502 351 537 q 330 571 295 571 q 266 571 246 547 q 226 522 226 487 q 226 443 243 422 q 259 401 318 383 q 406 356 436 321 q 466 285 466 219 q 466 142 420 92 q 375 42 292 30 z"},"?":{"x_min":0,"x_max":449,"ha":449,"o":"m 190 190 q 190 220 197 250 q 203 279 216 307 q 220 316 229 335 q 273 422 273 485 q 273 561 252 600 q 230 638 188 638 q 147 638 121 592 q 95 545 78 439 l 66 436 l 11 616 q 59 642 110 654 q 162 667 217 667 q 317 667 378 615 q 438 562 438 476 q 438 428 416 389 q 394 351 346 318 q 329 306 299 289 q 269 272 262 265 q 249 251 242 233 q 235 215 234 190 z m 142 61 q 142 94 162 117 q 182 139 212 139 q 242 139 263 116 q 284 93 284 61 q 284 28 263 4 q 242 -19 212 -19 q 183 -19 162 4 q 142 27 142 61 z"},"<":{"x_min":0,"x_max":833,"ha":833,"o":"m 704 583 l 704 476 l 268 298 l 704 120 l 704 13 l 129 250 l 129 347 z"},"'":{"x_min":0,"x_max":178,"ha":178,"o":"m 99 416 l 79 416 l 40 641 q 39 647 39 651 q 38 656 38 659 q 38 685 52 700 q 65 715 89 715 q 112 715 126 701 q 139 687 139 661 q 139 653 139 649 q 139 645 138 641 z"},"=":{"x_min":0,"x_max":833,"ha":833,"o":"m 124 242 l 709 242 l 709 145 l 124 145 z m 124 452 l 709 452 l 709 355 l 124 355 z"},"a":{"x_min":0,"x_max":495,"ha":495,"o":"m 305 290 q 237 290 203 251 q 169 213 169 135 q 169 87 186 58 q 203 30 230 30 q 265 30 285 76 q 305 123 305 206 z m 305 376 q 305 438 286 471 q 266 505 231 505 q 193 505 162 461 q 130 418 104 330 l 88 330 l 55 485 q 102 510 151 522 q 201 534 253 534 q 357 534 401 481 q 446 427 446 300 l 446 105 q 446 68 453 49 q 460 30 478 14 l 478 0 q 452 1 436 1 q 419 2 405 2 q 392 2 377 2 q 361 1 329 0 l 316 63 q 293 20 261 0 q 229 -19 184 -19 q 111 -19 65 27 q 19 74 19 147 q 19 232 84 276 q 148 321 271 321 q 285 321 292 321 q 299 320 305 320 z"},"L":{"x_min":0,"x_max":532,"ha":532,"o":"m 14 -4 l 14 10 q 44 30 57 71 q 69 112 69 204 l 69 558 q 69 602 62 615 q 55 629 37 638 l 37 652 q 83 649 106 649 q 129 648 148 648 q 167 648 190 649 q 213 649 259 652 l 259 638 q 241 629 234 615 q 227 602 227 558 l 227 172 q 227 100 245 70 q 263 39 305 39 q 353 39 406 86 q 459 133 513 223 l 526 219 l 481 0 l 232 0 q 205 0 146 -1 q 87 -2 14 -4 z"},"3":{"x_min":0,"x_max":542,"ha":542,"o":"m 31 40 l 79 204 l 94 202 q 104 112 140 62 q 176 13 231 13 q 279 13 304 52 q 328 91 328 170 q 328 236 299 272 q 269 308 214 308 q 206 308 190 306 q 189 306 188 306 l 188 350 q 197 349 205 348 q 213 347 221 347 q 268 347 291 380 q 314 413 314 481 q 314 537 293 568 q 273 600 238 600 q 197 600 164 555 q 132 510 113 426 l 99 426 l 68 582 q 114 606 163 618 q 212 630 263 630 q 356 630 410 589 q 464 548 464 477 q 464 425 432 388 q 399 352 337 331 q 413 311 449 272 q 485 233 485 171 q 485 83 424 33 q 363 -17 256 -17 q 198 -17 142 -3 q 86 12 31 40 z"},";":{"x_min":0,"x_max":271,"ha":271,"o":"m 98 -146 l 82 -131 q 102 -98 112 -68 q 121 -39 121 -12 q 83 -10 64 9 q 46 27 46 62 q 46 100 65 122 q 84 144 117 144 q 153 144 174 116 q 195 87 195 38 q 195 -3 171 -49 q 147 -95 98 -146 z m 46 412 q 46 445 67 468 q 87 491 117 491 q 146 491 168 468 q 189 445 189 412 q 189 379 168 356 q 147 333 117 333 q 87 333 66 356 q 46 378 46 412 z"},"J":{"x_min":0,"x_max":366,"ha":366,"o":"m -16 11 l 35 216 l 49 212 q 56 104 68 63 q 81 22 105 22 q 130 22 140 82 q 151 142 151 286 l 151 558 q 151 602 144 615 q 137 629 119 638 l 119 652 q 165 649 188 649 q 211 648 230 648 q 250 648 272 649 q 295 649 341 652 l 341 638 q 322 629 315 615 q 308 600 308 558 l 308 261 q 308 124 256 52 q 204 -19 105 -19 q 73 -19 43 -12 q 14 -4 -16 11 z"},"V":{"x_min":0,"x_max":565,"ha":565,"o":"m 606 652 l 606 638 q 556 621 486 456 q 479 439 476 431 l 280 -37 l 273 -37 l 54 511 q 26 583 5 610 q -15 637 -39 638 l -39 652 q -4 650 30 650 q 63 649 97 649 q 133 649 169 650 q 206 650 244 652 l 244 638 q 224 637 213 623 q 202 608 202 585 q 202 571 206 554 q 209 537 216 518 l 335 202 l 405 389 q 426 444 436 489 q 447 533 447 562 q 447 596 434 615 q 420 634 395 638 l 395 652 q 425 650 452 650 q 479 649 504 649 q 523 649 549 650 q 574 650 606 652 z"},"\"":{"x_min":0,"x_max":345,"ha":345,"o":"m 265 416 l 245 416 l 206 641 q 205 647 205 651 q 204 656 204 659 q 204 685 218 700 q 231 715 255 715 q 279 715 292 700 q 306 686 306 661 q 306 658 306 654 q 305 649 304 641 z m 99 416 l 79 416 l 40 641 q 40 645 39 648 q 39 652 39 659 q 39 685 53 700 q 66 715 89 715 q 112 715 126 701 q 139 687 139 661 q 139 653 139 649 q 139 645 138 641 z"},"7":{"x_min":0,"x_max":542,"ha":542,"o":"m 71 435 l 111 616 q 134 616 166 614 q 198 613 206 613 l 515 613 q 513 547 445 456 q 427 431 418 418 q 369 345 347 265 q 325 185 325 79 q 325 60 326 39 q 327 19 328 -3 q 315 -2 298 -1 q 281 -1 246 -1 q 208 -1 189 -1 q 169 -2 152 -3 l 152 15 q 152 100 178 174 q 205 249 256 308 q 279 334 326 376 q 409 449 416 498 l 213 498 q 160 498 131 483 q 102 469 86 435 z"},"S":{"x_min":0,"x_max":537,"ha":537,"o":"m 12 49 l 59 230 l 73 227 q 86 134 131 79 q 176 23 235 23 q 285 23 317 58 q 349 93 349 149 q 349 196 326 223 q 303 250 251 264 q 241 267 221 272 q 125 296 94 326 q 70 348 59 381 q 47 414 47 458 q 47 551 113 609 q 178 667 285 667 q 333 667 383 653 q 432 639 485 611 l 442 453 l 428 454 q 421 532 385 578 q 349 625 295 625 q 254 625 228 595 q 202 564 202 517 q 202 472 224 449 q 245 426 322 406 q 422 381 462 336 q 502 291 502 208 q 502 105 432 43 q 361 -19 245 -19 q 180 -19 120 -1 q 60 16 12 49 z"},"}":{"x_min":0,"x_max":500,"ha":500,"o":"m 84 740 q 199 740 241 705 q 283 669 283 571 l 283 477 q 283 396 311 366 q 338 336 414 329 l 414 292 q 338 285 311 255 q 283 225 283 144 l 283 50 q 283 -47 242 -83 q 200 -119 90 -119 l 84 -119 l 84 -90 q 142 -89 164 -63 q 186 -38 186 39 l 186 105 q 186 215 212 255 q 238 294 308 310 q 238 326 212 366 q 186 406 186 516 l 186 581 q 186 657 164 683 q 142 709 84 710 z"},"Z":{"x_min":0,"x_max":481,"ha":481,"o":"m -10 0 l 254 544 q 263 563 265 571 q 268 579 268 584 q 268 599 258 608 q 249 616 231 616 q 192 616 138 578 q 85 541 30 473 l 11 473 l 53 648 l 466 648 l 224 115 q 216 98 213 88 q 210 78 210 71 q 210 54 221 47 q 232 39 256 39 q 306 39 352 82 q 399 125 451 217 l 477 217 l 429 0 z"},"x":{"x_min":0,"x_max":444,"ha":444,"o":"m 181 200 l 145 143 q 129 117 122 97 q 114 77 114 61 q 114 42 125 29 q 135 15 154 10 l 154 -4 q 134 -2 113 -1 q 91 0 65 0 q 40 0 17 -1 q -5 -2 -27 -4 l -27 10 q 8 29 44 71 q 81 112 136 199 l 161 239 l 86 400 q 62 450 41 474 q 20 499 -9 512 l -9 525 l -3 525 q 79 521 119 521 q 142 521 169 522 q 196 522 243 525 l 243 512 q 227 503 219 491 q 212 479 212 461 q 212 448 217 431 q 222 415 231 397 l 252 356 l 289 430 q 294 440 297 451 q 300 461 300 472 q 300 488 292 498 q 285 507 270 512 l 270 525 q 302 522 320 522 q 338 521 353 521 q 368 521 386 522 q 404 522 440 525 l 440 512 q 414 505 384 474 q 354 443 308 374 l 272 320 l 371 119 q 398 64 417 40 q 435 17 455 10 l 455 -4 q 425 -2 393 -1 q 360 0 323 0 q 286 0 254 -1 q 222 -2 192 -4 l 192 10 q 213 17 222 28 q 231 39 231 58 q 231 71 225 91 q 220 111 209 136 z"},")":{"x_min":0,"x_max":241,"ha":241,"o":"m 48 -174 l 25 -174 q 62 -102 79 1 q 97 104 97 247 q 97 390 79 495 q 61 600 25 667 l 48 667 q 133 566 173 465 q 212 364 212 247 q 212 128 173 29 q 134 -71 48 -174 z"},"&":{"x_min":0,"x_max":551,"ha":551,"o":"m 241 389 q 261 411 271 440 q 280 469 280 511 q 280 552 268 575 q 255 599 234 599 q 215 599 203 579 q 191 559 191 526 q 191 496 204 461 q 216 426 241 389 z m 322 66 q 285 109 247 160 q 209 211 169 271 q 161 255 156 238 q 152 220 152 201 q 152 135 186 88 q 219 41 264 41 q 279 41 293 47 q 308 53 322 66 z m 329 318 l 329 334 l 500 334 q 499 286 484 236 q 470 187 442 134 q 481 83 513 57 q 544 30 572 24 l 572 5 q 506 5 458 4 q 411 2 372 0 l 349 30 q 316 5 280 -7 q 243 -19 203 -19 q 122 -19 70 29 q 19 78 19 154 q 19 205 47 245 q 76 285 137 320 q 114 354 102 390 q 91 426 91 464 q 91 540 133 590 q 176 639 240 639 q 301 639 340 602 q 379 564 379 505 q 379 457 353 421 q 327 385 266 350 q 271 343 282 328 q 353 228 395 182 q 399 196 401 207 q 403 218 403 228 q 403 266 385 288 q 367 310 329 318 z"},"_":{"x_min":0,"x_max":500,"ha":500,"o":"m 0 -136 l 500 -136 l 500 -236 l 0 -236 z"},"v":{"x_min":0,"x_max":426,"ha":426,"o":"m 325 391 q 332 409 335 423 q 338 438 338 451 q 338 478 326 492 q 313 507 287 513 l 287 524 q 311 522 334 522 q 357 521 381 521 q 404 521 428 522 q 452 522 476 524 l 476 513 q 448 500 421 464 q 394 428 370 373 l 209 -19 l 201 -19 l 42 386 l 40 392 q -8 509 -39 513 l -39 524 q -10 522 21 522 q 51 521 82 521 q 113 521 146 522 q 179 522 212 524 l 212 513 q 190 502 180 488 q 170 474 170 452 q 170 439 173 425 q 176 412 184 391 l 259 203 z"},"O":{"x_min":0,"x_max":657,"ha":657,"o":"m 328 14 q 395 14 428 91 q 461 168 461 325 q 461 482 428 558 q 396 635 328 635 q 261 635 229 559 q 197 484 197 325 q 197 167 229 90 q 261 14 328 14 z m 28 326 q 28 403 51 467 q 75 530 121 579 q 162 622 215 644 q 268 667 328 667 q 391 667 442 645 q 494 623 536 578 q 584 527 607 466 q 630 404 630 327 q 630 271 617 223 q 604 174 579 131 q 536 60 471 20 q 406 -19 330 -19 q 270 -19 215 5 q 160 29 119 74 q 75 122 51 187 q 28 251 28 326 z"},"(":{"x_min":0,"x_max":241,"ha":241,"o":"m 204 -174 q 118 -71 79 29 q 40 128 40 247 q 40 364 79 465 q 119 566 204 667 l 227 667 q 191 600 173 495 q 155 390 155 247 q 155 104 173 1 q 190 -102 227 -174 z"},"C":{"x_min":0,"x_max":565,"ha":565,"o":"m 502 232 l 516 235 l 551 68 q 498 25 439 3 q 380 -19 319 -19 q 254 -19 202 5 q 150 29 112 76 q 71 126 50 188 q 28 250 28 318 q 28 383 47 441 q 66 500 103 550 q 146 606 206 636 q 267 667 336 667 q 392 667 447 647 q 501 627 550 589 l 505 392 l 491 395 q 476 521 444 574 q 413 627 356 627 q 286 627 242 541 q 199 454 199 310 q 199 182 243 103 q 288 24 356 24 q 413 24 448 75 q 484 127 502 232 z"},"W":{"x_min":0,"x_max":764,"ha":764,"o":"m 816 652 l 816 638 q 780 626 749 576 q 717 526 686 431 l 533 -37 l 526 -37 l 379 397 l 242 -37 l 235 -37 l 52 508 q 26 583 7 609 q -12 634 -39 638 l -39 652 q -31 652 -15 651 q 57 648 84 648 q 116 648 205 651 q 229 652 240 652 l 240 638 q 217 633 207 621 q 197 608 197 585 q 197 572 200 555 q 204 538 211 518 l 293 266 l 427 683 l 434 683 l 588 257 l 623 389 q 639 449 647 495 q 656 541 656 562 q 656 595 643 615 q 629 635 605 638 l 605 652 q 635 650 661 650 q 688 649 713 649 q 732 649 759 650 q 785 650 816 652 z"},"A":{"x_min":0,"x_max":565,"ha":565,"o":"m 272 296 l 220 444 l 165 296 z m -46 -4 l -46 10 q 8 29 78 198 l 86 217 l 273 667 l 285 667 l 522 104 q 545 48 562 30 q 578 12 601 10 l 601 -4 l 592 -3 q 507 0 468 0 q 423 0 322 -3 q 310 -4 304 -4 l 304 10 q 324 12 336 26 q 347 40 347 63 q 347 76 343 93 q 339 110 332 130 l 285 259 l 151 259 q 127 197 117 156 q 106 115 106 86 q 106 53 119 33 q 133 13 157 10 l 157 -4 q 128 -2 104 -2 q 79 -1 58 -1 q 36 -1 10 -2 q -16 -2 -46 -4 z"},"f":{"x_min":0,"x_max":255,"ha":255,"o":"m 56 479 l -2 479 l 10 521 l 58 521 q 67 627 112 679 q 157 731 241 731 q 253 731 267 729 q 281 727 298 723 l 268 579 l 254 579 q 251 646 244 666 q 237 685 221 685 q 208 685 203 671 q 198 658 198 606 l 198 521 l 271 521 l 259 479 l 198 479 l 198 174 q 198 81 207 49 q 215 18 237 8 l 237 -3 q 217 -1 193 -1 q 168 0 121 0 q 74 0 50 -1 q 25 -1 5 -3 l 5 8 q 34 20 45 55 q 56 90 56 205 l 56 233 z"},"Q":{"x_min":0,"x_max":657,"ha":657,"o":"m 328 14 q 395 14 428 91 q 461 168 461 325 q 461 482 428 558 q 396 635 328 635 q 261 635 229 559 q 197 484 197 325 q 197 167 229 90 q 261 14 328 14 z m 201 -129 l 191 -90 q 217 -69 246 -52 q 275 -35 308 -22 q 178 -2 103 91 q 28 185 28 326 q 28 403 51 467 q 75 530 121 579 q 162 622 215 644 q 268 667 328 667 q 391 667 442 645 q 494 623 536 578 q 583 527 607 465 q 630 403 630 326 q 630 188 556 95 q 482 2 354 -22 q 416 -32 523 -91 l 533 -97 q 567 -116 581 -121 q 595 -126 606 -126 q 612 -126 615 -125 q 618 -125 621 -124 l 624 -138 q 577 -168 534 -189 q 491 -209 451 -220 q 393 -194 333 -147 q 273 -100 259 -100 q 246 -100 232 -107 q 219 -114 201 -129 z"},"w":{"x_min":0,"x_max":681,"ha":681,"o":"m 580 391 q 586 410 590 426 q 593 442 593 453 q 593 478 581 492 q 569 506 542 513 l 542 524 q 565 522 589 522 q 612 521 636 521 q 659 521 683 522 q 707 522 731 524 l 731 513 q 699 494 672 458 q 645 422 625 373 l 473 -19 l 465 -18 l 331 323 l 190 -19 l 183 -19 l 41 386 q 12 467 -3 489 q -18 510 -37 513 l -37 524 q -7 522 23 522 q 53 521 83 521 q 114 521 146 522 q 179 522 212 524 l 212 513 q 193 507 181 491 q 170 474 170 453 q 170 439 173 424 q 176 409 183 391 l 245 223 l 375 525 l 383 525 l 521 218 z"},"-":{"x_min":0,"x_max":264,"ha":264,"o":"m 248 318 l 217 203 l 16 203 l 47 318 z"},"E":{"x_min":0,"x_max":546,"ha":546,"o":"m 14 -4 l 14 10 q 44 30 57 71 q 69 112 69 204 l 69 558 q 69 602 62 615 q 55 629 37 638 l 37 652 q 94 650 144 649 q 193 648 231 648 l 465 648 l 500 473 l 486 473 q 428 551 373 586 q 317 621 253 621 q 242 621 237 621 q 232 621 227 620 l 227 363 q 240 362 247 361 q 254 361 259 361 q 320 361 356 387 q 392 413 407 467 l 421 467 l 421 220 l 407 220 q 392 275 356 301 q 320 326 259 326 q 254 326 247 326 q 240 325 227 324 l 227 172 q 227 100 247 70 q 266 39 311 39 q 363 39 420 86 q 477 133 535 223 l 549 219 l 500 0 l 232 0 q 205 0 146 -1 q 87 -2 14 -4 z"},"s":{"x_min":0,"x_max":444,"ha":444,"o":"m 10 41 l 51 210 l 66 204 q 78 117 112 68 q 146 18 193 18 q 230 18 255 45 q 279 72 279 114 q 279 150 263 170 q 247 189 184 212 q 90 245 65 276 q 39 308 39 367 q 39 442 93 488 q 146 534 235 534 q 274 534 316 523 q 357 511 400 489 l 364 352 l 349 355 q 342 427 315 466 q 289 505 245 505 q 214 505 194 482 q 174 459 174 425 q 174 383 190 363 q 207 343 266 326 q 355 300 385 266 q 414 232 414 168 q 414 84 355 32 q 295 -19 197 -19 q 150 -19 102 -3 q 54 12 10 41 z"},">":{"x_min":0,"x_max":833,"ha":833,"o":"m 129 583 l 704 347 l 704 250 l 129 13 l 129 120 l 566 298 l 129 476 z"},"l":{"x_min":0,"x_max":250,"ha":250,"o":"m 198 233 l 198 203 q 198 87 208 52 q 219 17 245 8 l 245 -3 q 216 -1 187 -1 q 158 0 128 0 q 99 0 68 -1 q 38 -1 5 -3 l 5 8 q 34 20 45 55 q 56 90 56 205 l 56 233 l 56 580 q 56 644 46 662 q 37 680 11 682 l 11 693 q 62 701 109 710 q 156 719 198 729 z"},"8":{"x_min":0,"x_max":542,"ha":542,"o":"m 308 392 q 330 414 341 440 q 351 466 351 499 q 351 546 333 573 q 315 600 283 600 q 253 600 235 576 q 216 551 216 512 q 216 471 238 443 q 259 415 308 392 z m 230 276 q 200 251 185 219 q 170 186 170 142 q 170 84 196 49 q 221 14 262 14 q 301 14 326 47 q 351 80 351 131 q 351 180 324 212 q 297 245 230 276 z m 178 308 q 123 342 97 380 q 71 418 71 464 q 71 538 126 584 q 182 630 273 630 q 363 630 417 592 q 471 554 471 492 q 471 449 443 417 q 416 384 358 361 q 437 321 471 278 q 506 234 506 176 q 506 89 440 37 q 375 -16 265 -16 q 163 -16 99 31 q 36 77 36 150 q 36 206 70 244 q 104 282 178 308 z"},"\\":{"x_min":0,"x_max":505,"ha":505,"o":"m 10 667 l 71 667 l 497 -93 l 436 -93 z"},"e":{"x_min":0,"x_max":505,"ha":505,"o":"m 174 357 l 322 357 q 322 428 304 466 q 287 504 254 504 q 220 504 198 464 q 176 425 174 357 z m 171 314 l 171 287 q 171 162 206 100 q 240 38 310 38 q 358 38 396 86 q 434 134 450 218 l 475 199 q 458 97 399 39 q 339 -19 253 -19 q 154 -19 88 61 q 23 141 23 264 q 23 381 90 458 q 157 534 259 534 q 356 534 415 474 q 474 415 475 314 z"},"b":{"x_min":0,"x_max":565,"ha":565,"o":"m 156 0 q 133 1 123 2 q 112 2 102 2 q 80 2 57 1 q 33 0 5 -3 l 5 8 q 34 20 45 55 q 56 90 56 205 l 56 233 l 56 580 q 56 644 46 662 q 37 680 11 682 l 11 693 q 59 700 105 709 q 151 718 195 729 l 195 461 q 222 500 254 517 q 286 535 328 535 q 419 535 479 461 q 539 387 539 272 q 539 145 479 63 q 419 -19 326 -19 q 286 -19 249 4 q 213 27 177 75 z m 294 34 q 339 34 365 91 q 391 148 391 249 q 391 371 366 431 q 342 491 292 491 q 246 491 221 432 q 196 373 196 262 q 196 152 221 93 q 247 34 294 34 z"},"%":{"x_min":0,"x_max":711,"ha":711,"o":"m 391 148 q 391 220 433 266 q 474 312 538 312 q 602 312 643 266 q 685 219 685 148 q 685 79 643 31 q 600 -16 538 -16 q 475 -16 433 31 q 391 77 391 148 z m 537 6 q 562 6 575 40 q 588 74 588 141 q 588 218 576 253 q 563 289 537 289 q 511 289 499 255 q 487 221 487 147 q 487 76 499 41 q 512 6 537 6 z m 151 -16 l 494 630 l 559 630 l 216 -16 z m 25 466 q 25 538 66 584 q 108 630 172 630 q 236 630 277 583 q 319 537 319 466 q 319 396 276 349 q 234 301 172 301 q 109 301 67 348 q 25 396 25 466 z m 173 324 q 198 324 211 358 q 224 392 224 459 q 224 536 212 571 q 199 607 173 607 q 146 607 134 573 q 122 539 122 466 q 122 395 135 360 q 147 324 173 324 z"},"m":{"x_min":0,"x_max":817,"ha":817,"o":"m 195 444 q 217 491 249 512 q 280 534 324 534 q 374 534 410 507 q 447 480 470 425 q 494 482 527 508 q 560 534 608 534 q 689 534 728 475 q 766 416 766 290 l 766 233 q 766 99 777 58 q 787 18 815 9 l 815 -3 q 787 -1 758 -1 q 729 0 700 0 q 672 0 643 -1 q 615 -1 586 -3 l 586 9 q 608 21 616 52 q 625 84 625 176 l 625 233 l 625 280 q 625 385 610 430 q 595 475 561 475 q 524 475 504 424 q 483 372 483 280 l 483 233 q 483 93 492 55 q 501 18 524 8 l 524 -3 q 497 -1 469 -1 q 441 0 414 0 q 386 0 358 -1 q 330 -1 301 -3 l 301 8 q 323 20 331 52 q 340 84 340 176 l 340 233 l 340 280 q 340 385 325 430 q 310 475 276 475 q 239 475 219 424 q 198 372 198 280 l 198 233 q 198 93 207 55 q 216 18 239 8 l 239 -3 q 212 -1 185 -1 q 157 0 128 0 q 99 0 68 -1 q 38 -1 5 -3 l 5 8 q 34 20 45 55 q 56 90 56 205 l 56 233 l 56 372 q 56 436 46 454 q 37 472 11 474 l 11 485 q 60 492 106 501 q 152 510 195 521 z"},"#":{"x_min":0,"x_max":769,"ha":769,"o":"m 344 416 l 300 293 l 429 293 l 472 416 z m 347 715 l 452 715 l 380 512 l 504 512 l 577 715 l 681 715 l 609 512 l 747 512 l 711 415 l 575 415 l 532 294 l 675 294 l 640 198 l 498 198 l 426 -5 l 321 -5 l 393 198 l 269 198 l 196 -5 l 91 -5 l 163 198 l 22 198 l 58 294 l 198 294 l 241 415 l 93 415 l 129 512 l 275 512 z"},",":{"x_min":0,"x_max":271,"ha":271,"o":"m 89 -146 l 73 -131 q 93 -98 102 -68 q 112 -39 112 -12 q 74 -10 55 9 q 37 27 37 62 q 37 100 56 122 q 75 144 108 144 q 144 144 165 116 q 185 87 185 38 q 185 -4 161 -50 q 137 -96 89 -146 z"},"n":{"x_min":0,"x_max":532,"ha":532,"o":"m 195 444 q 217 491 249 512 q 280 534 324 534 q 405 534 443 475 q 481 415 481 289 l 481 233 q 481 99 492 58 q 502 17 530 8 l 530 -3 q 501 -1 472 -1 q 443 0 415 0 q 387 0 358 -1 q 330 -1 301 -3 l 301 8 q 323 20 331 52 q 340 84 340 176 l 340 233 l 340 280 q 340 385 325 430 q 310 475 276 475 q 239 475 219 424 q 198 372 198 280 l 198 233 q 198 93 207 55 q 216 18 239 8 l 239 -3 q 212 -1 185 -1 q 157 0 128 0 q 99 0 68 -1 q 38 -1 5 -3 l 5 8 q 34 20 45 55 q 56 90 56 205 l 56 233 l 56 372 q 56 436 46 454 q 37 472 11 474 l 11 485 q 60 492 106 501 q 152 510 195 521 z"},"h":{"x_min":0,"x_max":532,"ha":532,"o":"m 56 580 q 56 644 46 662 q 37 680 11 682 l 11 693 q 58 700 104 709 q 150 718 198 729 l 198 444 q 218 490 249 512 q 279 534 324 534 q 405 534 443 475 q 481 415 481 289 l 481 233 q 481 99 492 58 q 502 17 530 8 l 530 -3 q 501 -1 472 -1 q 443 0 415 0 q 387 0 358 -1 q 330 -1 301 -3 l 301 8 q 323 20 331 52 q 340 84 340 176 l 340 233 l 340 280 q 340 385 325 430 q 310 475 276 475 q 239 475 219 424 q 198 372 198 280 l 198 233 q 198 93 207 55 q 216 18 239 8 l 239 -3 q 212 -1 185 -1 q 157 0 128 0 q 99 0 68 -1 q 38 -1 5 -3 l 5 8 q 34 20 45 55 q 56 90 56 205 l 56 233 z"},"z":{"x_min":0,"x_max":417,"ha":417,"o":"m -8 0 l 198 389 q 212 416 219 433 q 226 451 226 462 q 226 476 219 483 q 211 491 198 491 q 165 491 121 453 q 78 415 35 347 l 19 349 l 58 521 l 417 521 l 207 109 q 200 95 196 83 q 192 71 192 62 q 192 48 201 40 q 209 32 224 32 q 260 32 307 69 q 354 106 403 173 l 419 170 l 381 0 z"},"B":{"x_min":0,"x_max":602,"ha":602,"o":"m 227 371 q 240 370 246 369 q 251 369 257 369 l 279 369 q 330 369 356 401 q 383 434 383 495 q 383 556 358 584 q 333 612 278 612 q 265 612 252 611 q 240 610 227 609 z m 14 -4 l 14 10 q 45 30 57 72 q 69 114 69 240 l 69 280 l 69 558 q 69 602 62 615 q 55 629 37 638 l 37 652 q 77 650 112 649 q 147 648 172 648 q 199 648 246 649 q 293 650 314 650 q 433 650 489 614 q 545 578 545 502 q 545 440 506 403 q 468 367 388 353 q 488 342 537 300 q 587 257 587 183 q 587 91 524 44 q 461 -3 337 -3 q 318 -3 262 -1 q 206 0 168 0 q 132 0 93 -1 q 55 -2 14 -4 z m 227 329 l 227 138 q 227 69 240 52 q 252 35 289 35 q 351 35 381 71 q 411 106 411 179 q 411 259 381 294 q 350 330 282 330 l 257 330 q 246 330 239 330 q 233 330 227 329 z"},"K":{"x_min":0,"x_max":583,"ha":583,"o":"m 14 10 q 45 30 57 72 q 69 114 69 240 l 69 280 l 69 558 q 69 602 62 615 q 55 629 37 638 l 37 652 q 83 649 106 649 q 129 648 148 648 q 167 648 190 649 q 213 649 259 652 l 259 638 q 241 629 234 615 q 227 602 227 558 l 227 369 l 334 493 q 361 524 373 546 q 384 567 384 586 q 384 606 374 619 q 363 632 342 638 l 342 652 l 345 652 q 414 648 447 648 q 465 648 487 649 q 508 649 550 652 l 550 638 q 491 608 389 493 l 384 488 l 264 351 q 272 352 281 353 q 291 353 308 353 q 336 353 358 349 q 380 346 395 338 q 443 315 482 222 q 485 214 487 210 l 525 119 q 552 54 569 34 q 586 13 610 9 l 610 -4 q 586 -2 559 -1 q 531 0 500 0 q 468 0 440 -1 q 413 -2 386 -4 l 312 224 q 310 230 306 242 q 281 319 255 319 q 239 319 233 304 q 227 290 227 239 l 227 188 q 227 111 240 70 q 253 29 282 10 l 282 -4 q 251 -2 219 -1 q 186 0 148 0 q 110 0 77 -1 q 44 -2 14 -4 z"},"R":{"x_min":0,"x_max":583,"ha":583,"o":"m 14 -4 l 14 10 q 45 30 57 72 q 69 114 69 240 l 69 280 l 69 558 q 69 602 62 615 q 55 629 37 638 l 37 652 q 69 650 104 650 q 139 649 200 649 l 273 649 q 419 649 481 612 q 544 575 544 492 q 544 429 498 390 q 452 351 361 337 q 420 327 458 296 q 495 265 515 209 q 523 187 536 147 q 580 18 624 10 l 624 -2 q 572 -1 542 0 q 513 0 488 0 q 453 0 435 0 q 417 0 402 -1 q 397 20 387 60 q 323 322 246 322 q 241 322 229 320 q 228 320 227 320 l 227 244 q 227 115 239 73 q 251 30 282 10 l 282 -4 q 251 -2 219 -1 q 186 0 148 0 q 110 0 77 -1 q 44 -2 14 -4 z m 227 360 q 234 359 242 358 q 250 358 265 358 q 323 358 349 387 q 375 417 375 484 q 375 547 349 578 q 324 609 272 609 q 255 609 245 608 q 236 608 227 607 z"},"T":{"x_min":0,"x_max":546,"ha":546,"o":"m 139 -4 l 139 10 q 170 30 182 72 q 194 114 194 240 l 194 280 l 194 575 q 194 594 191 600 q 188 606 178 606 q 149 606 105 567 q 62 529 16 462 l 2 464 l 38 648 l 509 648 l 544 464 l 530 462 q 484 529 440 567 q 396 606 368 606 q 358 606 355 600 q 352 594 352 575 l 352 549 l 352 240 q 352 114 364 72 q 376 30 407 10 l 407 -4 q 376 -2 344 -1 q 311 0 273 0 q 235 0 202 -1 q 169 -2 139 -4 z"},"P":{"x_min":0,"x_max":546,"ha":546,"o":"m 227 346 q 241 342 252 340 q 263 338 272 338 q 319 338 347 376 q 375 415 375 481 q 375 550 348 582 q 320 614 261 614 q 254 614 248 614 q 241 613 227 612 z m 14 -4 l 14 10 q 45 30 57 72 q 69 114 69 240 l 69 280 l 69 558 q 69 602 62 615 q 55 629 37 638 l 37 652 q 75 650 112 649 q 149 648 200 648 l 273 648 q 417 648 481 608 q 544 568 544 478 q 544 397 478 349 q 412 301 301 301 q 285 301 267 302 q 248 304 227 307 l 227 244 q 227 115 239 73 q 251 30 282 10 l 282 -4 q 251 -2 219 -1 q 186 0 148 0 q 110 0 77 -1 q 44 -2 14 -4 z"},"|":{"x_min":0,"x_max":500,"ha":500,"o":"m 200 764 l 301 764 l 301 -236 l 200 -236 z"},"t":{"x_min":0,"x_max":287,"ha":287,"o":"m 207 243 q 207 110 221 66 q 236 22 274 10 l 274 -2 l 275 -2 q 218 -1 102 0 q 81 12 73 37 q 64 61 64 126 q 64 145 65 175 q 66 206 66 218 l 66 470 l 9 470 l 14 499 q 77 532 122 575 q 166 618 196 674 l 211 674 q 209 654 208 626 q 207 599 207 559 l 207 512 l 280 512 l 269 470 l 207 470 z"},"M":{"x_min":0,"x_max":694,"ha":694,"o":"m -16 -4 l -16 10 q 32 30 51 83 q 70 135 70 301 l 70 512 q 70 577 55 601 q 41 625 3 638 l 3 650 q 23 649 46 649 q 69 649 115 649 q 162 649 184 649 q 207 649 227 650 l 346 278 l 473 650 q 502 649 518 648 q 533 648 545 648 q 581 648 654 652 l 657 652 l 657 638 q 639 629 632 615 q 625 602 625 558 l 625 252 q 625 119 637 74 q 650 30 681 10 l 681 -4 q 651 -2 618 -1 q 585 0 547 0 q 509 0 476 -1 q 442 -2 412 -4 l 412 10 q 443 30 456 74 q 468 119 468 252 l 468 280 l 468 516 l 287 -14 l 278 -14 l 109 499 l 109 301 q 109 135 128 83 q 146 32 194 10 l 194 -4 q 170 -2 145 -1 q 119 0 89 0 q 59 0 33 -1 q 8 -2 -16 -4 z"},"g":{"x_min":0,"x_max":491,"ha":491,"o":"m 369 511 q 413 482 437 439 q 460 395 460 341 q 460 270 422 223 q 384 177 312 162 q 289 157 251 155 q 205 153 205 134 q 205 113 262 108 q 312 104 345 96 q 418 80 453 44 q 488 9 488 -49 q 488 -125 418 -171 q 349 -218 236 -218 q 122 -218 58 -179 q -6 -141 -6 -72 q -6 -25 30 4 q 65 33 129 40 q 93 51 79 65 q 64 80 64 102 q 64 129 84 146 q 104 162 150 173 q 86 200 57 240 q 27 279 27 338 q 27 430 85 482 q 143 534 247 534 q 272 534 293 532 q 314 530 335 525 q 354 565 387 586 q 420 608 462 608 q 469 608 482 606 q 484 606 485 606 l 450 465 q 438 493 423 507 q 408 521 389 521 q 385 521 380 519 q 375 516 369 511 z m 131 -83 q 131 -125 162 -154 q 193 -182 240 -182 q 286 -182 318 -153 q 350 -125 350 -83 q 350 -42 318 -14 q 286 15 240 15 q 194 15 162 -13 q 131 -42 131 -83 z m 243 194 q 277 194 296 232 q 314 271 314 342 q 314 413 296 451 q 277 489 243 489 q 209 489 191 451 q 173 414 173 343 q 173 271 191 232 q 209 194 243 194 z"},"j":{"x_min":0,"x_max":250,"ha":250,"o":"m 198 37 q 198 -75 148 -136 q 99 -198 9 -198 q -7 -198 -27 -196 q -47 -193 -69 -189 l -28 -19 l -14 -19 q -4 -104 4 -125 q 13 -145 29 -145 q 44 -145 50 -124 q 56 -102 56 -40 l 56 386 q 56 449 47 467 q 37 484 11 487 l 11 499 q 60 506 107 515 q 153 524 198 535 z m 55 651 q 55 684 76 707 q 96 729 126 729 q 156 729 177 706 q 198 684 198 651 q 198 618 177 594 q 156 571 126 571 q 96 571 76 594 q 55 617 55 651 z"},"i":{"x_min":0,"x_max":250,"ha":250,"o":"m 56 386 q 56 449 47 467 q 37 484 11 487 l 11 499 q 56 506 103 515 q 149 523 198 534 l 198 203 q 198 87 208 52 q 219 17 245 8 l 245 -3 q 216 -1 187 -1 q 158 0 128 0 q 99 0 68 -1 q 38 -1 5 -3 l 5 8 q 34 20 45 55 q 56 90 56 205 l 56 233 z m 56 651 q 56 684 76 707 q 96 729 126 729 q 156 729 177 706 q 198 684 198 651 q 198 618 177 594 q 156 571 126 571 q 96 571 76 594 q 56 617 56 651 z"},"y":{"x_min":0,"x_max":426,"ha":426,"o":"m 325 391 q 332 413 335 428 q 338 443 338 453 q 338 478 326 492 q 314 506 287 513 l 287 524 q 311 522 334 522 q 357 521 381 521 q 404 521 428 522 q 452 522 476 524 l 476 513 q 442 492 416 457 q 389 421 371 373 l 262 77 q 202 -85 157 -141 q 112 -197 52 -197 q 44 -197 38 -196 q 31 -194 25 -192 l 75 -15 l 88 -19 q 94 -51 103 -63 q 112 -75 130 -75 q 151 -75 166 -57 q 180 -39 180 -12 q 180 1 177 14 q 175 27 166 51 l 25 432 q 10 472 -5 491 q -20 511 -37 513 l -37 524 q -7 522 23 522 q 53 521 83 521 q 114 521 146 522 q 179 522 212 524 l 212 513 q 189 501 180 488 q 170 474 170 452 q 170 439 173 425 q 176 412 184 391 l 263 193 z"},"@":{"x_min":0,"x_max":986,"ha":986,"o":"m 574 156 q 544 107 509 83 q 473 60 430 60 q 361 60 322 104 q 282 149 282 227 q 282 283 307 335 q 331 388 377 431 q 411 462 449 479 q 488 495 528 495 q 575 495 601 473 q 628 451 636 406 l 660 486 l 753 486 l 668 184 l 667 181 q 660 152 660 138 q 660 115 670 102 q 680 89 697 89 q 713 89 738 101 q 764 113 786 132 q 836 175 863 238 q 890 301 890 377 q 890 511 798 595 q 706 678 559 678 q 492 678 431 660 q 371 641 320 605 q 235 546 190 454 q 144 363 144 251 q 144 87 247 -9 q 350 -105 523 -105 q 604 -105 679 -80 q 754 -56 829 -4 l 848 -29 q 774 -84 693 -112 q 611 -139 523 -139 q 432 -139 353 -117 q 275 -94 218 -52 q 144 3 104 84 q 65 165 65 261 q 65 337 90 407 q 116 477 165 536 q 236 621 334 667 q 433 712 547 712 q 717 712 820 620 q 922 527 922 374 q 922 295 893 228 q 864 160 810 111 q 781 85 748 72 q 715 58 681 58 q 633 58 605 83 q 578 109 574 156 z m 546 463 q 516 463 491 441 q 466 419 442 371 q 414 315 399 266 q 385 217 385 177 q 385 138 402 115 q 418 93 447 93 q 478 93 508 123 q 537 153 564 212 q 583 257 595 302 q 606 348 606 382 q 606 421 590 442 q 575 463 546 463 z"},".":{"x_min":0,"x_max":271,"ha":271,"o":"m 37 66 q 37 99 58 122 q 78 144 108 144 q 138 144 159 121 q 180 99 180 66 q 180 33 159 9 q 138 -14 108 -14 q 78 -14 58 9 q 37 32 37 66 z"},"p":{"x_min":0,"x_max":565,"ha":565,"o":"m 293 41 q 338 41 365 97 q 391 153 391 250 q 391 366 366 426 q 342 486 294 486 q 246 486 221 428 q 196 371 196 262 q 196 154 221 98 q 246 41 293 41 z m 197 33 l 197 10 q 197 -110 211 -143 q 225 -177 263 -187 l 263 -198 q 230 -196 198 -196 q 166 -195 134 -195 q 102 -195 70 -196 q 38 -196 5 -198 l 5 -187 q 34 -175 45 -140 q 56 -105 56 10 l 56 38 l 56 372 q 56 436 46 454 q 37 472 11 474 l 11 485 q 59 492 105 501 q 151 510 195 521 l 195 443 q 216 488 251 511 q 285 534 333 534 q 423 534 481 459 q 539 384 539 265 q 539 147 479 67 q 420 -12 333 -12 q 290 -12 255 9 q 221 31 197 73 z"},"X":{"x_min":0,"x_max":509,"ha":509,"o":"m 179 10 l 179 -4 q 155 -2 128 -1 q 102 0 71 0 q 40 0 13 -1 q -14 -2 -38 -4 l -38 10 q -1 30 39 76 q 79 123 125 199 l 188 303 l 103 486 l 100 494 q 45 612 -14 638 l -14 652 l -11 652 q 82 648 129 648 q 154 648 184 649 q 213 649 273 652 l 273 638 q 250 629 240 617 q 229 605 229 588 q 229 579 235 562 q 240 544 250 523 l 298 426 l 345 522 q 352 538 355 552 q 359 565 359 580 q 359 603 349 616 q 340 630 318 638 l 318 652 l 321 652 q 390 648 424 648 q 442 648 464 649 q 485 649 529 652 l 529 638 q 501 631 459 584 q 418 538 373 460 l 325 378 l 428 163 q 464 88 492 52 q 519 16 544 10 l 544 -4 q 512 -2 476 -1 q 440 0 398 0 q 355 0 318 -1 q 280 -2 245 -4 l 245 10 q 271 17 281 27 q 290 38 290 58 q 290 73 284 91 q 279 110 266 136 l 212 254 l 158 147 q 146 124 141 105 q 136 87 136 73 q 136 50 147 34 q 158 18 179 10 z"},"*":{"x_min":0,"x_max":463,"ha":463,"o":"m 212 537 l 175 648 l 286 648 l 249 536 l 343 606 l 377 501 l 260 502 l 355 434 l 266 369 l 231 480 l 197 369 l 107 434 l 201 502 l 85 501 l 119 606 z"},"Y":{"x_min":0,"x_max":495,"ha":495,"o":"m 323 280 l 323 234 q 323 119 335 74 q 348 29 378 10 l 378 -4 q 348 -2 315 -1 q 282 0 244 0 q 207 0 173 -1 q 140 -2 110 -4 l 110 10 q 141 29 154 75 q 166 122 166 239 l 166 280 l 38 526 q 9 582 -11 604 q -32 627 -59 638 l -59 652 q -2 649 28 649 q 59 648 84 648 q 131 648 226 652 l 229 652 l 229 638 q 206 629 196 617 q 186 605 186 587 q 186 577 191 564 q 195 550 209 523 l 304 335 l 387 517 q 395 533 398 549 q 402 565 402 580 q 402 602 392 616 q 382 630 361 638 l 361 652 l 364 652 q 433 648 467 648 q 486 648 508 649 q 529 649 573 652 l 573 638 q 541 629 503 585 q 465 541 421 460 z"},"c":{"x_min":0,"x_max":458,"ha":458,"o":"m 390 317 q 373 416 349 458 q 324 500 285 500 q 236 500 204 433 q 171 367 171 261 q 171 149 202 93 q 233 36 294 36 q 332 36 362 65 q 393 94 414 149 l 440 137 q 413 62 364 21 q 315 -19 251 -19 q 154 -19 88 62 q 23 142 23 264 q 23 384 90 459 q 158 534 266 534 q 315 534 359 519 q 402 503 440 472 l 406 315 z"},"!":{"x_min":0,"x_max":271,"ha":271,"o":"m 109 191 q 108 276 82 381 l 81 386 q 66 442 61 475 q 56 509 56 541 q 56 602 77 634 q 97 667 135 667 q 173 667 193 634 q 214 602 214 541 q 214 507 209 472 q 204 437 190 386 q 189 382 188 375 q 162 273 161 191 z m 64 61 q 64 94 84 117 q 105 139 135 139 q 165 139 186 116 q 207 93 207 61 q 207 28 186 4 q 165 -19 135 -19 q 105 -19 84 4 q 64 27 64 61 z"},"/":{"x_min":0,"x_max":505,"ha":505,"o":"m 10 -93 l 436 667 l 497 667 l 72 -93 z"},"[":{"x_min":0,"x_max":241,"ha":241,"o":"m 164 -24 q 164 -103 180 -127 q 195 -150 238 -153 l 238 -174 l 185 -174 q 109 -174 88 -153 q 67 -132 67 -28 l 67 521 q 67 625 88 646 q 109 667 185 667 l 238 667 l 238 646 q 195 644 180 620 q 164 596 164 517 z"},"6":{"x_min":0,"x_max":542,"ha":542,"o":"m 447 430 l 430 434 q 415 522 388 561 q 360 600 314 600 q 257 600 226 540 q 195 479 195 369 l 195 350 q 220 382 249 397 q 277 412 313 412 q 402 412 458 354 q 514 296 514 205 q 514 108 450 46 q 387 -16 287 -16 q 171 -16 102 68 q 33 152 33 295 q 33 448 108 539 q 184 630 309 630 q 354 630 397 616 q 441 602 485 573 z m 198 196 q 198 112 219 64 q 241 16 278 16 q 318 16 338 63 q 359 111 359 204 q 359 284 338 329 q 317 374 280 374 q 244 374 221 325 q 198 276 198 196 z"},"r":{"x_min":0,"x_max":347,"ha":347,"o":"m 65 386 q 65 449 56 467 q 46 484 20 487 l 20 499 q 67 506 114 515 q 160 523 206 534 l 206 425 q 229 479 259 507 q 289 534 325 534 q 334 534 340 534 q 346 533 351 532 l 307 343 q 299 367 288 380 q 277 392 262 392 q 233 392 220 340 q 207 289 207 169 q 207 87 218 52 q 229 17 255 8 l 255 -3 q 226 -1 197 -1 q 168 0 138 0 q 108 0 77 -1 q 46 -1 14 -3 l 14 8 q 43 20 54 55 q 65 90 65 205 l 65 233 z"},"2":{"x_min":0,"x_max":542,"ha":542,"o":"m 57 584 q 106 607 153 619 q 201 630 249 630 q 344 630 402 578 q 459 525 459 439 q 459 378 425 332 q 391 285 329 262 q 312 256 258 241 q 203 226 178 206 q 159 191 147 170 q 136 148 130 118 l 302 118 q 355 118 389 139 q 423 160 450 208 l 467 208 l 417 0 l 41 0 q 42 69 68 125 q 93 181 143 224 q 155 235 180 255 q 254 316 277 353 q 290 373 295 399 q 301 424 301 461 q 301 529 280 565 q 259 601 220 601 q 178 601 146 552 q 115 502 102 417 l 84 414 z"},"{":{"x_min":0,"x_max":500,"ha":500,"o":"m 416 740 l 416 710 q 357 709 335 684 q 314 658 314 581 l 314 516 q 314 406 288 366 q 262 326 192 310 q 262 294 288 255 q 314 215 314 105 l 314 39 q 314 -38 335 -63 q 357 -89 416 -90 l 416 -119 q 301 -119 260 -84 q 218 -48 218 50 l 218 144 q 218 225 190 255 q 163 285 87 292 l 87 329 q 163 336 190 366 q 218 396 218 477 l 218 571 q 218 669 260 705 q 301 740 416 740 z"},"9":{"x_min":0,"x_max":542,"ha":542,"o":"m 95 184 l 112 180 q 127 92 154 53 q 182 14 228 14 q 285 14 316 74 q 347 135 347 245 l 347 264 q 322 232 293 217 q 265 202 229 202 q 140 202 84 260 q 28 317 28 409 q 28 506 92 568 q 155 630 255 630 q 371 630 440 546 q 509 462 509 319 q 509 166 434 75 q 358 -16 233 -16 q 188 -16 145 -2 q 101 13 57 41 z m 343 418 q 343 503 322 551 q 301 598 264 598 q 224 598 204 551 q 183 503 183 410 q 183 330 204 286 q 225 241 262 241 q 298 241 321 289 q 343 337 343 418 z"}," ":{"x_min":0,"x_max":271,"ha":271,"o":""},"I":{"x_min":0,"x_max":296,"ha":296,"o":"m 14 -4 l 14 10 q 45 30 57 72 q 69 114 69 240 l 69 280 l 69 558 q 69 602 62 615 q 55 629 37 638 l 37 652 q 83 649 106 649 q 129 648 148 648 q 167 648 190 649 q 213 649 259 652 l 259 638 q 241 629 234 615 q 227 602 227 558 l 227 240 q 227 114 239 72 q 251 30 282 10 l 282 -4 q 251 -2 219 -1 q 186 0 148 0 q 110 0 77 -1 q 44 -2 14 -4 z"},"H":{"x_min":0,"x_max":644,"ha":644,"o":"m 14 -4 l 14 10 q 45 30 57 72 q 69 114 69 240 l 69 280 l 69 558 q 69 602 62 615 q 55 629 37 638 l 37 652 q 83 649 106 649 q 129 648 148 648 q 167 648 190 649 q 213 649 259 652 l 259 638 q 241 629 234 615 q 227 602 227 558 l 227 363 q 236 362 249 361 q 262 361 295 361 l 348 361 q 364 361 381 361 q 398 362 417 363 l 417 558 q 417 600 410 615 q 402 629 384 638 l 384 652 q 430 649 453 649 q 476 648 495 648 q 514 648 537 649 q 560 649 606 652 l 606 638 q 588 629 581 615 q 574 602 574 558 l 574 252 q 574 119 586 74 q 599 30 630 10 l 630 -4 q 600 -2 567 -1 q 534 0 496 0 q 458 0 425 -1 q 392 -2 361 -4 l 361 10 q 392 30 405 74 q 417 119 417 252 l 417 280 l 417 324 q 406 325 392 326 q 378 326 348 326 l 295 326 q 265 326 251 326 q 238 325 227 324 l 227 240 q 227 114 239 72 q 251 30 282 10 l 282 -4 q 251 -2 219 -1 q 186 0 148 0 q 110 0 77 -1 q 44 -2 14 -4 z"},"4":{"x_min":0,"x_max":542,"ha":542,"o":"m 236 233 l 240 450 l 97 233 z m 378 155 q 378 83 389 50 q 400 16 426 8 l 426 -3 q 397 -1 368 -1 q 339 0 309 0 q 279 0 249 -1 q 218 -1 185 -3 l 185 8 q 212 21 223 49 q 235 78 235 135 l 235 155 l 14 155 l 34 223 l 350 660 l 377 660 l 377 233 q 410 237 438 261 q 467 286 495 332 l 506 327 l 475 150 q 463 152 448 154 q 433 155 413 155 z"},"~":{"x_min":0,"x_max":833,"ha":833,"o":"m 747 392 l 747 284 q 696 250 651 233 q 606 217 562 217 q 540 217 517 221 q 495 225 472 232 q 460 236 438 244 q 331 281 275 281 q 233 281 188 262 q 143 244 87 204 l 87 312 q 139 347 187 365 q 234 382 276 382 q 333 382 418 354 l 420 353 q 429 350 447 344 q 522 317 564 317 q 605 317 649 335 q 693 353 747 392 z"},"D":{"x_min":0,"x_max":630,"ha":630,"o":"m 222 611 l 222 176 q 222 81 235 55 q 247 30 282 30 q 354 30 391 106 q 428 182 428 328 q 428 477 392 547 q 356 616 279 616 q 267 616 254 615 q 240 614 222 611 z m 9 -4 l 9 10 q 41 30 53 74 q 65 119 65 252 l 65 280 l 65 558 q 65 600 58 615 q 51 629 32 638 l 32 652 q 68 650 101 649 q 134 648 164 648 q 195 648 238 649 q 280 650 291 650 q 440 650 519 570 q 597 491 597 340 q 597 175 520 85 q 443 -5 303 -5 q 285 -5 238 -2 q 191 1 163 1 q 147 1 117 0 q 88 -1 9 -4 z"},"^":{"x_min":0,"x_max":1000,"ha":1000,"o":"m 442 714 l 557 714 l 797 438 l 742 438 l 499 620 l 256 438 l 201 438 z"},"0":{"x_min":0,"x_max":542,"ha":542,"o":"m 271 14 q 319 14 343 86 q 366 158 366 307 q 366 456 343 528 q 319 600 271 600 q 222 600 199 529 q 176 458 176 307 q 176 157 199 85 q 222 14 271 14 z m 25 307 q 25 448 95 539 q 165 629 271 629 q 376 629 446 538 q 516 448 516 308 q 516 238 497 178 q 478 119 439 70 q 406 28 363 6 q 319 -16 271 -16 q 166 -16 95 75 q 25 167 25 307 z"},"F":{"x_min":0,"x_max":491,"ha":491,"o":"m 14 -4 l 14 10 q 45 30 57 72 q 69 114 69 240 l 69 280 l 69 558 q 69 602 62 615 q 55 629 37 638 l 37 652 q 94 650 144 649 q 193 648 231 648 l 465 648 l 500 473 l 486 473 q 428 551 373 586 q 317 621 253 621 q 242 621 237 621 q 232 621 227 620 l 227 363 q 240 362 247 361 q 254 361 259 361 q 320 361 356 387 q 392 413 407 467 l 421 467 l 421 220 l 407 220 q 392 275 356 301 q 320 326 259 326 q 254 326 247 326 q 240 325 227 324 l 227 240 q 227 114 239 72 q 251 30 282 10 l 282 -4 q 251 -2 219 -1 q 186 0 148 0 q 110 0 77 -1 q 44 -2 14 -4 z"},"`":{"x_min":0,"x_max":500,"ha":500,"o":"m 348 589 l 304 589 l 144 678 q 118 692 108 704 q 99 716 99 731 q 99 752 112 766 q 125 780 145 780 q 160 780 174 771 q 188 763 212 737 z"},"k":{"x_min":0,"x_max":481,"ha":481,"o":"m 198 318 l 274 412 q 289 429 296 446 q 304 462 304 476 q 304 488 295 498 q 286 508 269 513 l 269 525 q 310 522 333 522 q 355 521 374 521 q 409 521 482 525 l 485 525 l 485 513 q 424 486 369 440 q 314 394 263 328 l 273 328 q 324 328 353 308 q 381 288 413 213 l 453 119 q 460 103 470 81 q 480 59 480 56 q 480 46 493 33 q 506 20 524 14 l 524 0 l 478 0 q 436 0 400 -1 q 365 -2 333 -4 q 295 82 265 182 q 234 283 218 283 q 211 283 206 279 q 202 275 198 267 l 198 203 q 198 87 208 52 q 219 17 245 8 l 245 -3 q 216 -1 187 -1 q 158 0 128 0 q 99 0 68 -1 q 38 -1 5 -3 l 5 8 q 34 20 45 55 q 56 90 56 205 l 56 233 l 56 580 q 56 644 46 662 q 37 680 11 682 l 11 693 q 62 701 109 710 q 156 719 198 729 z"},"u":{"x_min":0,"x_max":532,"ha":532,"o":"m 359 0 q 354 19 349 40 q 345 60 341 84 q 318 31 286 6 q 253 -19 209 -19 q 129 -19 90 42 q 51 104 51 231 l 51 386 q 51 449 42 467 q 32 484 6 487 l 6 499 q 58 506 176 530 l 196 534 q 194 489 193 452 q 192 416 192 398 l 192 241 q 192 136 207 90 q 222 45 256 45 q 292 45 313 97 q 334 149 334 241 l 334 386 q 334 449 324 467 q 315 484 289 487 l 289 499 q 331 505 378 514 q 425 523 477 534 l 477 105 q 477 67 484 48 q 491 30 508 14 l 508 0 q 482 1 466 1 q 449 2 435 2 q 422 2 407 2 q 392 1 359 0 z"},"]":{"x_min":0,"x_max":241,"ha":241,"o":"m 2 -153 q 44 -150 60 -127 q 76 -103 76 -24 l 76 517 q 76 596 61 619 q 45 643 2 646 l 2 667 l 56 667 q 132 667 153 646 q 174 625 174 521 l 174 -28 q 174 -132 153 -153 q 132 -174 56 -174 l 2 -174 z"},"U":{"x_min":0,"x_max":583,"ha":583,"o":"m 7 638 l 7 652 q 63 649 91 649 q 118 648 141 648 q 185 648 272 652 l 275 652 l 275 638 q 244 618 232 576 q 220 534 220 408 l 220 368 l 220 251 q 220 137 251 86 q 282 34 350 34 q 383 34 411 53 q 439 72 458 107 q 470 130 476 162 q 481 194 481 259 l 481 345 q 481 511 462 562 q 444 614 396 636 l 396 650 q 415 649 436 648 q 458 648 502 648 q 545 648 567 648 q 588 649 607 650 l 607 636 q 559 615 540 562 q 521 509 521 344 l 521 259 q 521 112 466 47 q 411 -19 289 -19 q 172 -19 118 42 q 63 103 63 233 l 63 376 q 63 526 51 573 q 39 619 7 638 z"},"o":{"x_min":0,"x_max":528,"ha":528,"o":"m 263 11 q 308 11 332 76 q 356 141 356 262 q 356 380 332 442 q 309 504 263 504 q 219 504 195 442 q 171 380 171 263 q 171 143 195 77 q 219 11 263 11 z m 23 260 q 23 383 90 458 q 157 534 265 534 q 372 534 438 458 q 505 382 505 261 q 505 138 437 59 q 369 -19 262 -19 q 159 -19 91 60 q 23 140 23 260 z"},"N":{"x_min":0,"x_max":579,"ha":579,"o":"m 108 507 l 108 301 q 108 137 127 85 q 146 32 194 10 l 194 -4 q 170 -2 145 -1 q 119 0 89 0 q 59 0 33 -1 q 7 -2 -17 -4 l -17 10 q 32 29 50 82 q 69 135 69 301 l 69 511 q 69 575 54 600 q 40 625 3 638 l 3 650 q 16 650 59 648 q 102 647 125 647 q 139 647 165 648 q 190 649 202 649 l 475 278 l 475 345 q 475 511 457 562 q 438 613 390 635 l 390 649 q 409 648 430 647 q 452 647 496 647 q 539 647 561 647 q 583 648 601 649 l 601 635 q 552 615 533 562 q 514 508 514 344 l 514 -24 l 495 -24 z"},"+":{"x_min":0,"x_max":833,"ha":833,"o":"m 367 596 l 466 596 l 466 347 l 709 347 l 709 250 l 466 250 l 466 0 l 367 0 l 367 250 l 124 250 l 124 347 l 367 347 z"},"G":{"x_min":0,"x_max":630,"ha":630,"o":"m 620 337 l 620 326 q 591 314 580 279 q 569 244 569 129 l 569 101 l 569 68 q 512 25 450 3 q 388 -19 321 -19 q 255 -19 203 5 q 151 28 112 76 q 71 126 50 188 q 28 250 28 318 q 28 383 47 442 q 66 501 103 550 q 145 605 206 636 q 267 667 336 667 q 394 667 449 648 q 504 629 569 587 l 524 412 l 511 416 q 495 522 458 574 q 420 627 362 627 q 288 627 243 543 q 199 459 199 315 q 199 176 234 99 q 270 21 331 21 q 373 21 395 55 q 417 89 417 155 q 417 253 403 285 q 389 316 352 327 l 352 337 q 385 335 417 335 q 450 334 483 334 q 516 334 550 335 q 584 335 620 337 z"},"q":{"x_min":0,"x_max":565,"ha":565,"o":"m 173 267 q 173 159 199 100 q 225 41 272 41 q 319 41 344 98 q 368 154 368 262 q 368 372 343 429 q 318 486 271 486 q 226 486 199 428 q 173 370 173 267 z m 368 73 q 344 31 310 9 q 275 -12 232 -12 q 144 -12 84 68 q 25 149 25 272 q 25 387 84 461 q 144 534 236 534 q 279 534 313 512 q 347 491 372 448 q 377 468 385 487 q 392 505 400 523 q 408 522 418 522 q 427 522 448 522 q 471 522 498 523 q 525 524 560 527 l 560 515 q 531 503 520 469 q 509 434 509 319 l 509 291 l 509 10 q 509 -105 520 -140 q 531 -175 560 -187 l 560 -198 q 527 -196 495 -196 q 463 -195 431 -195 q 399 -195 367 -196 q 334 -196 302 -198 l 302 -187 q 340 -177 354 -143 q 368 -110 368 10 l 368 33 z"},"d":{"x_min":0,"x_max":565,"ha":565,"o":"m 174 262 q 174 151 199 93 q 225 34 272 34 q 318 34 344 93 q 369 152 369 262 q 369 373 344 432 q 319 491 273 491 q 225 491 199 433 q 174 375 174 262 z m 402 -3 l 387 75 q 351 27 315 4 q 278 -19 238 -19 q 145 -19 85 63 q 25 145 25 272 q 25 387 85 460 q 145 534 237 534 q 279 534 310 517 q 342 499 369 461 l 369 580 q 369 645 360 662 q 350 680 325 682 l 325 693 q 373 700 419 709 q 465 718 509 729 l 509 205 q 509 90 520 55 q 531 20 560 8 l 560 -3 q 545 -1 528 -1 q 511 0 478 0 q 446 0 431 -1 q 415 -1 402 -3 z"},"1":{"x_min":0,"x_max":542,"ha":542,"o":"m 201 481 q 201 544 192 562 q 182 580 156 582 l 156 594 q 205 602 252 610 q 298 619 343 630 l 343 221 q 343 90 353 54 q 364 17 391 8 l 391 -3 q 362 -1 333 -1 q 304 0 274 0 q 244 0 213 -1 q 183 -1 150 -3 l 150 8 q 179 20 190 55 q 201 90 201 205 l 201 233 z"},"5":{"x_min":0,"x_max":542,"ha":542,"o":"m 45 44 l 91 216 l 108 210 q 118 118 153 66 q 188 13 238 13 q 285 13 313 57 q 341 102 341 176 q 341 250 310 289 q 280 328 222 328 q 198 328 164 320 q 129 311 82 293 l 106 613 l 384 613 q 416 613 433 619 q 451 625 461 638 l 469 637 l 436 498 l 189 498 q 127 498 120 372 q 119 348 118 335 q 156 348 190 354 q 223 360 252 360 q 362 360 427 312 q 492 263 492 181 q 492 89 428 37 q 363 -16 251 -16 q 192 -16 141 -1 q 89 14 45 44 z"}}}
